<svg width="202" height="41" viewBox="0 0 202 41" fill="none" xmlns="http://www.w3.org/2000/svg">
<path fill-rule="evenodd" clip-rule="evenodd" d="M22.9051 9.5249C22.1617 8.79978 22.2272 7.56716 22.2272 6.52863C22.2272 5.1321 21.0951 4 19.6985 4C18.302 4 17.1699 5.1321 17.1699 6.52863C17.1699 7.59433 17.2594 8.86632 16.4991 9.6131C15.3516 10.7402 14.2268 11.823 14.0689 11.902C13.7528 12.06 12.8573 12.4288 11.9091 12.4288C11.3598 12.4288 10.5985 12.305 9.73771 11.7505C8.65149 11.0508 9.05725 9.40112 9.05725 8.10902C9.05725 6.7125 7.92515 5.58039 6.52863 5.58039C5.1321 5.58039 4 6.7125 4 8.10902C4 9.68761 5.16605 11.1943 5.16605 12.7728V19.4878C5.13093 19.962 5.20819 21.1525 5.7982 22.1218C5.95408 22.3779 6.08887 22.598 6.20414 22.7851C6.56018 23.3631 6.98978 23.8899 7.47271 24.367L19.0073 35.7621C19.1464 35.8995 19.3343 35.9741 19.5292 35.9899C19.6665 36.001 19.78 36.0101 20.12 35.9766C20.3487 35.954 24.9581 31.2494 29.061 27.0619C30.2784 25.8193 31.4512 24.6222 32.4518 23.6066C32.8038 23.2491 33.1371 22.871 33.3875 22.4363C33.7886 21.7403 34.2233 20.7614 34.1926 19.962C34.1636 19.2092 34.1662 16.0594 34.1763 13.205C34.1824 11.4754 35.6078 9.83857 35.6078 8.10902C35.6078 6.7125 34.4757 5.58039 33.0792 5.58039C31.6827 5.58039 30.5506 6.7125 30.5506 8.10902C30.5506 9.29174 30.9344 10.6895 30.0352 11.4578C29.3901 12.009 28.5725 12.4288 27.6076 12.4288C27.0626 12.4288 26.648 12.3935 26.3327 12.3413C25.6117 12.2217 25.0678 11.6342 24.5446 11.1239L22.9051 9.5249ZM21.5982 15.4648C22.6248 14.4153 22.6063 12.7323 21.5568 11.7057L21.4934 11.6438C20.444 10.6172 18.761 10.6357 17.7344 11.6852C16.7078 12.7347 16.7263 14.4177 17.7758 15.4443L17.8392 15.5062C18.8886 16.5328 20.5716 16.5143 21.5982 15.4648ZM7.79291 19.1718C7.79291 20.2013 8.18154 21.1401 8.8201 21.8495C9.16488 22.2325 9.5703 22.5574 9.92928 22.9271L18.8948 32.1602C19.1055 32.3772 19.3952 32.4997 19.6977 32.4997C20.0013 32.4997 20.2918 32.3764 20.5027 32.1581L30.1568 22.1626C30.3076 22.0283 30.4482 21.8828 30.5773 21.7273L30.6022 21.7015C30.6028 21.7009 30.6027 21.6999 30.602 21.6994C30.6014 21.699 30.6013 21.6981 30.6018 21.6975C31.1626 21.0085 31.4988 20.1294 31.4988 19.1718C31.4988 16.9606 29.7063 15.1681 27.4952 15.1681C26.2018 15.1681 25.0517 15.7814 24.3198 16.733C24.1485 16.9557 23.9888 17.1878 23.8063 17.4015C21.7255 19.8375 17.991 19.9292 15.7931 17.5982L14.9465 16.7002C14.2135 15.7673 13.075 15.1681 11.7966 15.1681C9.5854 15.1681 7.79291 16.9606 7.79291 19.1718Z" fill="#663398"/>
<rect x="14.4688" y="23.7418" width="2.71189" height="12.0831" rx="1.35594" transform="rotate(41.7463 14.4688 23.7418)" fill="#663398"/>
<rect x="22.8457" y="25.1009" width="2.56265" height="12.4063" rx="1.28133" transform="rotate(-40.4293 22.8457 25.1009)" fill="#663398"/>
<g filter="url(#filter0_d)">
<path d="M42.36 9.216V8.088H49.488V9.216L47.688 9.408L50.424 14.064L53.28 9.408L51.504 9.216V8.088H56.784V9.216L54.816 9.432L51.096 15.168L55.536 22.656L57.432 22.872V24H50.112V22.872L52.104 22.656L49.056 17.544L45.816 22.656L47.52 22.872V24H42.216V22.872L44.304 22.632L48.408 16.416L44.256 9.432L42.36 9.216ZM65.0672 11.184L62.8592 17.832H67.2512L65.0672 11.184ZM58.0352 24V22.872L60.0032 22.584L65.0192 7.992H66.9872L72.0032 22.704L73.6352 22.896V24H66.6992V22.896L68.8112 22.632L67.6592 19.08H62.4272L61.2752 22.56L63.3632 22.872V24H58.0352ZM72.7847 12.456L72.9287 8.088H86.5367L86.6567 12.456H85.0007L84.4967 9.36H81.3287C81.3127 10.368 81.2967 11.392 81.2807 12.432C81.2807 13.456 81.2807 14.488 81.2807 15.528V16.56C81.2807 17.568 81.2807 18.584 81.2807 19.608C81.2967 20.616 81.3127 21.624 81.3287 22.632L83.5847 22.872V24H75.8567V22.872L78.1127 22.632C78.1447 21.64 78.1607 20.64 78.1607 19.632C78.1607 18.608 78.1607 17.584 78.1607 16.56V15.528C78.1607 14.504 78.1607 13.48 78.1607 12.456C78.1607 11.416 78.1447 10.384 78.1127 9.36H74.9687L74.4647 12.456H72.7847ZM92.5594 11.184L90.3514 17.832H94.7434L92.5594 11.184ZM85.5274 24V22.872L87.4954 22.584L92.5114 7.992H94.4794L99.4954 22.704L101.127 22.896V24H94.1914V22.896L96.3034 22.632L95.1514 19.08H89.9194L88.7674 22.56L90.8554 22.872V24H85.5274ZM111.764 9.216V8.088H118.916V9.216L116.924 9.432C116.908 10.424 116.892 11.432 116.876 12.456C116.876 13.464 116.876 14.488 116.876 15.528V16.56C116.876 17.568 116.876 18.584 116.876 19.608C116.892 20.616 116.908 21.632 116.924 22.656L118.916 22.872V24H111.764V22.872L113.708 22.656C113.74 21.648 113.756 20.624 113.756 19.584C113.756 18.544 113.756 17.504 113.756 16.464H107.252C107.252 17.616 107.252 18.696 107.252 19.704C107.268 20.712 107.284 21.696 107.3 22.656L109.268 22.872V24H102.116V22.872L104.108 22.656C104.14 21.664 104.156 20.656 104.156 19.632C104.156 18.608 104.156 17.584 104.156 16.56V15.528C104.156 14.52 104.156 13.512 104.156 12.504C104.156 11.48 104.14 10.456 104.108 9.432L102.116 9.216V8.088H109.268V9.216L107.3 9.432C107.284 10.424 107.268 11.416 107.252 12.408C107.252 13.4 107.252 14.336 107.252 15.216H113.756C113.756 14.224 113.756 13.248 113.756 12.288C113.756 11.328 113.74 10.376 113.708 9.432L111.764 9.216Z" fill="#663398"/>
</g>
<path d="M47.5713 26.8906H48.1719V34H47.5713V27.916L43.5234 34H42.918V26.8906H43.5234V32.9697L47.5713 26.8906ZM53.9189 34H53.333V31.5781H50.4863V34H49.9004V28.7168H50.4863V31.085H53.333V28.7168H53.9189V34ZM59.2803 29.2148H57.3564V34H56.7705V29.2148H54.9199V28.7168H59.2803V29.2148ZM61.8975 34.0977C61.4482 34.0977 61.0413 33.987 60.6768 33.7656C60.3154 33.5443 60.0339 33.2367 59.832 32.8428C59.6302 32.4456 59.5293 32.0013 59.5293 31.5098V31.2998C59.5293 30.792 59.627 30.3346 59.8223 29.9277C60.0208 29.5208 60.2959 29.2018 60.6475 28.9707C60.999 28.7363 61.3799 28.6191 61.79 28.6191C62.4313 28.6191 62.9391 28.8389 63.3135 29.2783C63.6911 29.7145 63.8799 30.3118 63.8799 31.0703V31.3975H60.1104V31.5098C60.1104 32.1087 60.2812 32.6084 60.623 33.0088C60.9681 33.4059 61.401 33.6045 61.9219 33.6045C62.2344 33.6045 62.5094 33.5475 62.7471 33.4336C62.988 33.3197 63.2061 33.1374 63.4014 32.8867L63.7676 33.165C63.3379 33.7868 62.7145 34.0977 61.8975 34.0977ZM61.79 29.1172C61.3506 29.1172 60.9795 29.2783 60.6768 29.6006C60.3773 29.9229 60.195 30.3558 60.1299 30.8994H63.2988V30.8359C63.2826 30.3281 63.1377 29.9147 62.8643 29.5957C62.5908 29.2767 62.2327 29.1172 61.79 29.1172ZM69.2656 31.4121C69.2656 32.2357 69.0833 32.89 68.7188 33.375C68.3542 33.8568 67.8659 34.0977 67.2539 34.0977C66.5312 34.0977 65.9779 33.8438 65.5938 33.3359V36.0312H65.0127V28.7168H65.5547L65.584 29.4639C65.9648 28.9007 66.5166 28.6191 67.2393 28.6191C67.8708 28.6191 68.3656 28.8584 68.7236 29.3369C69.085 29.8154 69.2656 30.4795 69.2656 31.3291V31.4121ZM68.6797 31.3096C68.6797 30.6357 68.5413 30.1035 68.2646 29.7129C67.988 29.3223 67.6022 29.127 67.1074 29.127C66.7493 29.127 66.4417 29.2132 66.1846 29.3857C65.9274 29.5583 65.7305 29.8089 65.5938 30.1377V32.6719C65.7337 32.9746 65.9339 33.2057 66.1943 33.3652C66.4548 33.5247 66.7624 33.6045 67.1172 33.6045C67.6087 33.6045 67.9912 33.4092 68.2646 33.0186C68.5413 32.6247 68.6797 32.055 68.6797 31.3096ZM74.6221 34H74.0361V31.5781H71.1895V34H70.6035V28.7168H71.1895V31.085H74.0361V28.7168H74.6221V34ZM78.2354 34.0977C77.7861 34.0977 77.3792 33.987 77.0146 33.7656C76.6533 33.5443 76.3717 33.2367 76.1699 32.8428C75.9681 32.4456 75.8672 32.0013 75.8672 31.5098V31.2998C75.8672 30.792 75.9648 30.3346 76.1602 29.9277C76.3587 29.5208 76.6338 29.2018 76.9854 28.9707C77.3369 28.7363 77.7178 28.6191 78.1279 28.6191C78.7692 28.6191 79.277 28.8389 79.6514 29.2783C80.029 29.7145 80.2178 30.3118 80.2178 31.0703V31.3975H76.4482V31.5098C76.4482 32.1087 76.6191 32.6084 76.9609 33.0088C77.306 33.4059 77.7389 33.6045 78.2598 33.6045C78.5723 33.6045 78.8473 33.5475 79.085 33.4336C79.3258 33.3197 79.5439 33.1374 79.7393 32.8867L80.1055 33.165C79.6758 33.7868 79.0524 34.0977 78.2354 34.0977ZM78.1279 29.1172C77.6885 29.1172 77.3174 29.2783 77.0146 29.6006C76.7152 29.9229 76.5329 30.3558 76.4678 30.8994H79.6367V30.8359C79.6204 30.3281 79.4756 29.9147 79.2021 29.5957C78.9287 29.2767 78.5706 29.1172 78.1279 29.1172ZM85.0908 29.2148H83.167V34H82.5811V29.2148H80.7305V28.7168H85.0908V29.2148ZM91.4092 33.209L93.5088 28.7168H94.2314V34H93.6455V29.6641L91.6143 34H91.1992L89.1289 29.5664V34H88.5479V28.7168H89.3145L91.4092 33.209ZM99.1338 34C99.0752 33.834 99.0378 33.5882 99.0215 33.2627C98.8164 33.5296 98.5544 33.7363 98.2354 33.8828C97.9196 34.026 97.5843 34.0977 97.2295 34.0977C96.7217 34.0977 96.3099 33.9561 95.9941 33.6729C95.6816 33.3896 95.5254 33.0316 95.5254 32.5986C95.5254 32.0843 95.7386 31.6774 96.165 31.3779C96.5947 31.0785 97.1921 30.9287 97.957 30.9287H99.0166V30.3281C99.0166 29.9505 98.8994 29.6543 98.665 29.4395C98.4339 29.2214 98.0954 29.1123 97.6494 29.1123C97.2425 29.1123 96.9056 29.2165 96.6387 29.4248C96.3717 29.6331 96.2383 29.8838 96.2383 30.1768L95.6523 30.1719C95.6523 29.752 95.8477 29.389 96.2383 29.083C96.6289 28.7738 97.109 28.6191 97.6787 28.6191C98.2679 28.6191 98.7318 28.7673 99.0703 29.0635C99.4121 29.3564 99.5879 29.7666 99.5977 30.2939V32.7939C99.5977 33.305 99.6514 33.6875 99.7588 33.9414V34H99.1338ZM97.2979 33.5801C97.6885 33.5801 98.0368 33.4857 98.3428 33.2969C98.652 33.1081 98.8766 32.8558 99.0166 32.54V31.3779H97.9717C97.389 31.3844 96.9333 31.4919 96.6045 31.7002C96.2757 31.9053 96.1113 32.1885 96.1113 32.5498C96.1113 32.846 96.2204 33.0918 96.4385 33.2871C96.6598 33.4824 96.9463 33.5801 97.2979 33.5801ZM104.451 29.2197H101.78V34H101.194V28.7168H104.451V29.2197ZM108.714 34C108.655 33.834 108.618 33.5882 108.602 33.2627C108.396 33.5296 108.134 33.7363 107.815 33.8828C107.5 34.026 107.164 34.0977 106.81 34.0977C106.302 34.0977 105.89 33.9561 105.574 33.6729C105.262 33.3896 105.105 33.0316 105.105 32.5986C105.105 32.0843 105.319 31.6774 105.745 31.3779C106.175 31.0785 106.772 30.9287 107.537 30.9287H108.597V30.3281C108.597 29.9505 108.479 29.6543 108.245 29.4395C108.014 29.2214 107.675 29.1123 107.229 29.1123C106.823 29.1123 106.486 29.2165 106.219 29.4248C105.952 29.6331 105.818 29.8838 105.818 30.1768L105.232 30.1719C105.232 29.752 105.428 29.389 105.818 29.083C106.209 28.7738 106.689 28.6191 107.259 28.6191C107.848 28.6191 108.312 28.7673 108.65 29.0635C108.992 29.3564 109.168 29.7666 109.178 30.2939V32.7939C109.178 33.305 109.231 33.6875 109.339 33.9414V34H108.714ZM106.878 33.5801C107.269 33.5801 107.617 33.4857 107.923 33.2969C108.232 33.1081 108.457 32.8558 108.597 32.54V31.3779H107.552C106.969 31.3844 106.513 31.4919 106.185 31.7002C105.856 31.9053 105.691 32.1885 105.691 32.5498C105.691 32.846 105.8 33.0918 106.019 33.2871C106.24 33.4824 106.526 33.5801 106.878 33.5801ZM113.836 30.1133C113.836 29.7943 113.717 29.5485 113.479 29.376C113.242 29.2035 112.915 29.1172 112.498 29.1172C112.12 29.1172 111.797 29.2148 111.526 29.4102C111.259 29.6022 111.126 29.8464 111.126 30.1426H110.545C110.545 29.7031 110.732 29.3402 111.106 29.0537C111.484 28.7673 111.948 28.624 112.498 28.624C113.104 28.624 113.576 28.7542 113.914 29.0146C114.253 29.2751 114.422 29.6445 114.422 30.123C114.422 30.377 114.344 30.6064 114.188 30.8115C114.031 31.0166 113.803 31.1761 113.504 31.29C114.181 31.4756 114.52 31.8955 114.52 32.5498C114.52 33.0251 114.336 33.401 113.968 33.6777C113.6 33.9544 113.112 34.0928 112.503 34.0928C111.914 34.0928 111.425 33.9447 111.038 33.6484C110.651 33.3522 110.457 32.9648 110.457 32.4863H111.043C111.043 32.8053 111.183 33.0723 111.463 33.2871C111.746 33.4987 112.093 33.6045 112.503 33.6045C112.949 33.6045 113.297 33.5117 113.548 33.3262C113.802 33.1374 113.929 32.8818 113.929 32.5596C113.929 32.2048 113.813 31.9492 113.582 31.793C113.351 31.6367 112.998 31.5586 112.522 31.5586H111.717V31.0508H112.62C113.431 31.0312 113.836 30.7188 113.836 30.1133ZM119.28 28.7168H119.866V34H119.28V29.6592L116.429 34H115.848V28.7168H116.429V33.0625L119.28 28.7168ZM125.491 34H124.905V31.5781H122.059V34H121.473V28.7168H122.059V31.085H124.905V28.7168H125.491V34ZM129.168 31.2803C129.168 30.7725 129.266 30.3151 129.461 29.9082C129.66 29.5013 129.938 29.1855 130.296 28.9609C130.657 28.7331 131.066 28.6191 131.521 28.6191C132.225 28.6191 132.794 28.8665 133.23 29.3613C133.667 29.8529 133.885 30.5055 133.885 31.3193V31.4414C133.885 31.9525 133.785 32.4131 133.587 32.8232C133.392 33.2301 133.115 33.5443 132.757 33.7656C132.399 33.987 131.99 34.0977 131.531 34.0977C130.831 34.0977 130.262 33.8519 129.822 33.3604C129.386 32.8656 129.168 32.2113 129.168 31.3975V31.2803ZM129.754 31.4414C129.754 32.0729 129.917 32.5921 130.242 32.999C130.571 33.4027 131.001 33.6045 131.531 33.6045C132.059 33.6045 132.485 33.4027 132.811 32.999C133.139 32.5921 133.304 32.0566 133.304 31.3926V31.2803C133.304 30.8766 133.229 30.5072 133.079 30.1719C132.929 29.8366 132.719 29.5778 132.449 29.3955C132.179 29.21 131.87 29.1172 131.521 29.1172C131.001 29.1172 130.576 29.3223 130.247 29.7324C129.918 30.1393 129.754 30.6732 129.754 31.334V31.4414ZM134.622 33.5068L134.881 33.1699C135.291 32.6133 135.527 31.7995 135.589 30.7285L135.682 28.7168H138.802V33.5068H139.349V35.5527H138.768V34H134.798V35.5527H134.236L134.241 33.5068H134.622ZM135.296 33.5068H138.216V29.2637H136.238L136.175 30.6357C136.116 31.8955 135.823 32.8525 135.296 33.5068ZM142.522 34.0977C142.073 34.0977 141.666 33.987 141.302 33.7656C140.94 33.5443 140.659 33.2367 140.457 32.8428C140.255 32.4456 140.154 32.0013 140.154 31.5098V31.2998C140.154 30.792 140.252 30.3346 140.447 29.9277C140.646 29.5208 140.921 29.2018 141.272 28.9707C141.624 28.7363 142.005 28.6191 142.415 28.6191C143.056 28.6191 143.564 28.8389 143.938 29.2783C144.316 29.7145 144.505 30.3118 144.505 31.0703V31.3975H140.735V31.5098C140.735 32.1087 140.906 32.6084 141.248 33.0088C141.593 33.4059 142.026 33.6045 142.547 33.6045C142.859 33.6045 143.134 33.5475 143.372 33.4336C143.613 33.3197 143.831 33.1374 144.026 32.8867L144.393 33.165C143.963 33.7868 143.34 34.0977 142.522 34.0977ZM142.415 29.1172C141.976 29.1172 141.604 29.2783 141.302 29.6006C141.002 29.9229 140.82 30.3558 140.755 30.8994H143.924V30.8359C143.908 30.3281 143.763 29.9147 143.489 29.5957C143.216 29.2767 142.858 29.1172 142.415 29.1172ZM149.681 31.5586H148.978V34H148.392V31.5586H147.693L145.74 34H144.998L147.186 31.29L145.242 28.7168H145.95L147.684 31.0361H148.392V28.7168H148.978V31.0361H149.69L151.424 28.7168H152.142L150.188 31.29L152.381 34H151.634L149.681 31.5586ZM153.196 33.5068L153.455 33.1699C153.865 32.6133 154.101 31.7995 154.163 30.7285L154.256 28.7168H157.376V33.5068H157.923V35.5527H157.342V34H153.372V35.5527H152.811L152.815 33.5068H153.196ZM153.87 33.5068H156.79V29.2637H154.812L154.749 30.6357C154.69 31.8955 154.397 32.8525 153.87 33.5068ZM159.695 30.6357H161.219C161.609 30.6357 161.951 30.7074 162.244 30.8506C162.54 30.9906 162.763 31.1859 162.913 31.4365C163.066 31.6872 163.143 31.9785 163.143 32.3105C163.143 32.8216 162.967 33.2318 162.615 33.541C162.267 33.847 161.795 34 161.199 34H159.114V28.7168H159.695V30.6357ZM159.695 31.1338V33.5068H161.209C161.629 33.5068 161.958 33.401 162.195 33.1895C162.436 32.9779 162.557 32.6882 162.557 32.3203C162.557 31.9688 162.439 31.6855 162.205 31.4707C161.974 31.2526 161.657 31.1403 161.253 31.1338H159.695ZM164.935 34H164.349V28.7168H164.935V34Z" fill="#43464E"/>
<defs>
<filter id="filter0_d" x="39.2158" y="5.992" width="82.6997" height="22.008" filterUnits="userSpaceOnUse" color-interpolation-filters="sRGB">
<feFlood flood-opacity="0" result="BackgroundImageFix"/>
<feColorMatrix in="SourceAlpha" type="matrix" values="0 0 0 0 0 0 0 0 0 0 0 0 0 0 0 0 0 0 127 0"/>
<feOffset dy="1"/>
<feGaussianBlur stdDeviation="1.5"/>
<feColorMatrix type="matrix" values="0 0 0 0 0 0 0 0 0 0 0 0 0 0 0 0 0 0 0.25 0"/>
<feBlend mode="normal" in2="BackgroundImageFix" result="effect1_dropShadow"/>
<feBlend mode="normal" in="SourceGraphic" in2="effect1_dropShadow" result="shape"/>
</filter>
</defs>
</svg>
