<svg width="20" height="20" viewBox="0 0 20 20" fill="none" xmlns="http://www.w3.org/2000/svg">
<path d="M8.44437 14.8125C7.2443 14.8125 6.25488 15.7587 6.25488 16.9063C6.25488 18.0538 7.24439 19 8.44437 19C9.64445 19.0008 10.6339 18.0546 10.6339 16.9069C10.6339 15.7592 9.64436 14.8123 8.44437 14.8123V14.8125ZM8.44437 17.7322C7.9599 17.7322 7.58071 17.3696 7.58071 16.9063C7.58071 16.443 7.9599 16.0804 8.44437 16.0804C8.92885 16.0804 9.30804 16.443 9.30804 16.9063C9.30722 17.35 8.90748 17.7322 8.44437 17.7322Z" fill="#43464E"/>
<path d="M15.6885 14.8123C14.4884 14.8123 13.499 15.7585 13.499 16.9061C13.499 18.0536 14.4885 18.9998 15.6885 18.9998C16.8885 18.9998 17.878 18.0536 17.878 16.9061C17.8574 15.7593 16.8885 14.8123 15.6885 14.8123ZM15.6885 17.732C15.204 17.732 14.8248 17.3694 14.8248 16.9061C14.8248 16.4428 15.204 16.0802 15.6885 16.0802C16.173 16.0802 16.5522 16.4428 16.5522 16.9061C16.5522 17.3498 16.1516 17.732 15.6885 17.732Z" fill="#43464E"/>
<path d="M12.3704 9.61432C12.2991 9.61432 12.2286 9.6033 12.1604 9.58191C12.1536 9.57997 12.1483 9.57867 12.143 9.57608C12.0657 9.54885 11.9982 9.51125 11.9414 9.46198L9.75918 7.68068C9.64397 7.58344 9.58105 7.45249 9.58105 7.31442C9.58105 7.17634 9.64397 7.04539 9.75918 6.94815C9.87287 6.85027 10.026 6.79581 10.1874 6.79581C10.3489 6.79581 10.502 6.84962 10.6157 6.94815L11.764 7.84458V2.18069C11.764 1.8948 12.0354 1.66208 12.3704 1.66208C12.7054 1.66208 12.9768 1.89415 12.9768 2.18069V7.84325L14.1251 6.94683C14.2396 6.84894 14.3919 6.79449 14.5534 6.79449C14.7148 6.79449 14.8679 6.84829 14.9816 6.94683C15.0961 7.04407 15.1597 7.17502 15.1597 7.31309C15.1597 7.45117 15.0968 7.58212 14.9816 7.67935L12.7986 9.46065C12.7418 9.50927 12.6751 9.54687 12.6001 9.5741C12.5932 9.57604 12.5864 9.57864 12.5788 9.58123C12.5099 9.60392 12.4409 9.61432 12.3704 9.61432Z" fill="#43464E"/>
<path fill-rule="evenodd" clip-rule="evenodd" d="M17.9821 3.95983C18.5924 3.95983 19.1822 4.24141 19.5613 4.7047L19.5613 4.70476C19.9619 5.16805 20.0877 5.77213 19.9405 6.33688L18.3612 12.539C18.1507 13.405 17.3289 14.0091 16.4028 14.0091H8.00152C7.07451 14.0091 6.27502 13.405 6.04306 12.539L3.47434 2.75248C3.39045 2.45044 3.11654 2.24908 2.80069 2.24908H0.653099C0.294459 2.24908 0 1.96669 0 1.62454C0 1.28158 0.295301 1 0.653099 1H2.80069C3.72769 1 4.52718 1.60408 4.75914 2.47009L5.15889 3.95983H9.77148V5.22868H5.49611L7.32789 12.2557C7.41178 12.5578 7.68569 12.7591 8.00154 12.7591H16.4036C16.7195 12.7591 16.9934 12.5578 17.0773 12.2557L18.6566 6.05365L18.6567 6.05379C18.7192 5.85243 18.6567 5.65107 18.5308 5.49061C18.4042 5.32936 18.1936 5.22868 17.983 5.22868H14.9689V3.95983H17.9821Z" fill="#43464E"/>
</svg>
