<svg width="20" height="20" viewBox="0 0 20 20" fill="none" xmlns="http://www.w3.org/2000/svg">
<path fill-rule="evenodd" clip-rule="evenodd" d="M17.9821 2.95973C18.5924 2.95973 19.1821 3.2413 19.5613 3.70458C19.9619 4.16785 20.0877 4.77197 19.9405 5.33671L18.3612 11.5386C18.1506 12.4046 17.3289 13.0086 16.4028 13.0086H8.00151C7.0745 13.0086 6.27502 12.4046 6.04306 11.5386L3.47433 1.75242C3.39044 1.45039 3.11654 1.24903 2.80068 1.24903H0.653098C0.294459 1.24903 0 0.966656 0 0.624517C0 0.281572 0.295301 0 0.653098 0H2.80068C3.72769 0 4.52717 0.60406 4.75914 1.47004L5.15888 2.95973H17.9821ZM11.2149 10.375C11.3484 10.5091 11.5287 10.5829 11.7157 10.5829L11.7157 10.5829H11.729C11.9228 10.5829 12.1099 10.496 12.2366 10.3551L15.3752 6.9229C15.6423 6.63493 15.6222 6.18558 15.335 5.92426C15.0481 5.65613 14.6005 5.6763 14.3402 5.96459L11.6956 8.86028L10.4268 7.58668C10.1533 7.31174 9.70588 7.31174 9.43198 7.58668C9.15809 7.86131 9.15809 8.31038 9.43198 8.58532L11.2149 10.375Z" fill="#43464E"/>
<path d="M8.44437 13.8127C7.2443 13.8127 6.25488 14.7589 6.25488 15.9064C6.25488 17.0539 7.24439 18.0001 8.44437 18.0001C9.64444 18.0009 10.6339 17.0547 10.6339 15.907C10.6339 14.7594 9.64436 13.8127 8.44437 13.8127Z" fill="#43464E"/>
<path d="M15.6885 13.8124C14.4884 13.8124 13.499 14.7586 13.499 15.9061C13.499 17.0536 14.4885 17.9998 15.6885 17.9998C16.8885 17.9998 17.878 17.0536 17.878 15.9061C17.8574 14.7593 16.8885 13.8124 15.6885 13.8124Z" fill="#43464E"/>
</svg>
