<svg width="88" height="81" viewBox="0 0 88 81" fill="none" xmlns="http://www.w3.org/2000/svg">
<g filter="url(#filter0_d)">
<circle cx="44" cy="33" r="33" fill="#663398"/>
<g clip-path="url(#clip0)">
<path d="M58.5627 25.192C57.9851 24.4864 57.0869 24.0575 56.1573 24.0575H36.6266L36.0178 21.7886C35.6645 20.4696 34.4468 19.5496 33.0349 19.5496H29.7639C29.219 19.5496 28.7692 19.9784 28.7692 20.5008C28.7692 21.0219 29.2177 21.452 29.7639 21.452H33.0349C33.516 21.452 33.9331 21.7587 34.0609 22.2187L37.9733 37.124C38.3266 38.443 39.5443 39.3631 40.9562 39.3631H53.7519C55.1625 39.3631 56.4141 38.443 56.7348 37.124L59.1401 27.6779C59.3644 26.8178 59.1727 25.8977 58.5626 25.1921L58.5627 25.192ZM57.1846 27.2465L54.7793 36.6927C54.6515 37.1527 54.2343 37.4594 53.7532 37.4594H40.9562C40.4751 37.4594 40.0579 37.1527 39.9302 36.6927L37.1402 25.9901H56.1588C56.4795 25.9901 56.8002 26.1434 56.9931 26.389C57.1848 26.6334 57.28 26.9401 57.1848 27.2468L57.1846 27.2465Z" fill="white"/>
<path d="M41.6307 40.5872C39.8029 40.5872 38.2959 42.0284 38.2959 43.7761C38.2959 45.5238 39.803 46.965 41.6307 46.965C43.4585 46.9662 44.9654 45.525 44.9654 43.777C44.9654 42.029 43.4583 40.5869 41.6307 40.5869V40.5872ZM41.6307 45.0341C40.8928 45.0341 40.3152 44.4818 40.3152 43.7762C40.3152 43.0706 40.8928 42.5183 41.6307 42.5183C42.3686 42.5183 42.9461 43.0706 42.9461 43.7762C42.9448 44.4519 42.336 45.0341 41.6307 45.0341Z" fill="white"/>
<path d="M52.6625 40.5872C50.8347 40.5872 49.3278 42.0283 49.3278 43.776C49.3278 45.5238 50.8348 46.9649 52.6625 46.9649C54.4902 46.9649 55.9973 45.5238 55.9973 43.776C55.966 42.0294 54.4902 40.5872 52.6625 40.5872ZM52.6625 45.034C51.9246 45.034 51.3471 44.4818 51.3471 43.7762C51.3471 43.0705 51.9246 42.5183 52.6625 42.5183C53.4004 42.5183 53.978 43.0705 53.978 43.7762C53.978 44.4518 53.3679 45.034 52.6625 45.034Z" fill="white"/>
</g>
</g>
<defs>
<filter id="filter0_d" x="0" y="-7" width="88" height="88" filterUnits="userSpaceOnUse" color-interpolation-filters="sRGB">
<feFlood flood-opacity="0" result="BackgroundImageFix"/>
<feColorMatrix in="SourceAlpha" type="matrix" values="0 0 0 0 0 0 0 0 0 0 0 0 0 0 0 0 0 0 127 0"/>
<feOffset dy="4"/>
<feGaussianBlur stdDeviation="5.5"/>
<feColorMatrix type="matrix" values="0 0 0 0 0.113725 0 0 0 0 0.121569 0 0 0 0 0.133333 0 0 0 0.1 0"/>
<feBlend mode="normal" in2="BackgroundImageFix" result="effect1_dropShadow"/>
<feBlend mode="normal" in="SourceGraphic" in2="effect1_dropShadow" result="shape"/>
</filter>
<clipPath id="clip0">
<rect width="30.4615" height="30.4615" fill="white" transform="translate(28.7692 17.7693)"/>
</clipPath>
</defs>
</svg>
