<svg width="16" height="16" viewBox="0 0 16 16" fill="none" xmlns="http://www.w3.org/2000/svg">
<path d="M5.33327 0.799988C3.91244 0.799988 2.62502 1.07915 1.66111 1.56109C0.697205 2.04302 0 2.76177 0 3.64996V12.1832C0 13.0631 0.689578 13.7784 1.65555 14.2611C2.62151 14.7438 3.91118 15.0278 5.33339 15.0278C6.52853 15.0278 7.62849 14.8236 8.52235 14.4722C9.22096 14.8264 10.0092 15.0278 10.8445 15.0278C13.6875 15.0278 16 12.7152 16 9.87224C16 7.02923 13.6875 4.71671 10.8445 4.71671C10.7834 4.71671 10.7216 4.72019 10.6611 4.72227V3.65006C10.6611 2.76187 9.96949 2.04312 9.0056 1.56118C8.04172 1.07925 6.75424 0.800086 5.33345 0.800086L5.33327 0.799988ZM5.33327 1.51664C6.66174 1.51664 7.8625 1.79234 8.7 2.21107C9.53751 2.62981 9.96112 3.16316 9.96112 3.64996C9.79584 4.40482 9.24237 4.82078 8.7 5.08329C7.86252 5.50204 6.66179 5.77772 5.33327 5.77772C4.00474 5.77772 2.80404 5.50202 1.96653 5.08329C1.3457 4.76176 0.781116 4.27149 0.705418 3.64996C0.705418 3.16316 1.12902 2.62983 1.96653 2.21107C2.80404 1.79232 4.00474 1.51664 5.33327 1.51664ZM0.711072 5.0944C0.97427 5.33676 1.29996 5.55273 1.66107 5.73329C2.62496 6.21523 3.91244 6.49439 5.33323 6.49439C5.94919 6.49439 6.53808 6.43745 7.08878 6.33884C6.66933 6.78467 6.32976 7.3055 6.08878 7.87771C5.84295 7.89924 5.59087 7.9166 5.33323 7.9166C4.00686 7.9166 2.80827 7.64021 1.97218 7.22216C1.1361 6.80412 0.711072 6.27842 0.711072 5.78328V5.0944ZM10.8443 5.42773C13.3034 5.42773 15.2888 7.41314 15.2888 9.87215C15.2888 12.3312 13.3034 14.3166 10.8443 14.3166C8.38534 14.3166 6.39993 12.3312 6.39993 9.87215C6.39993 7.41314 8.38534 5.42773 10.8443 5.42773ZM0.711072 7.22772C0.972883 7.4687 1.2958 7.68119 1.65551 7.86105C2.62079 8.34368 3.91043 8.62771 5.33336 8.62771C5.50697 8.62771 5.67572 8.61938 5.84447 8.61105C5.74308 9.01451 5.68891 9.43742 5.68891 9.87216C5.68891 9.9298 5.69238 9.98744 5.69447 10.0444C5.57502 10.0492 5.45557 10.0499 5.33337 10.0499C4.00699 10.0499 2.8084 9.77355 1.97232 9.3555C1.13623 8.93746 0.711205 8.41176 0.711205 7.91661L0.711072 7.22772ZM0.711072 9.36104C0.972883 9.60202 1.2958 9.81451 1.65551 9.99437C2.62079 10.477 3.91043 10.761 5.33336 10.761C5.47919 10.761 5.62432 10.7569 5.76669 10.7499C5.85141 11.2395 6.00418 11.7062 6.21668 12.1388C5.92987 12.1673 5.63682 12.1832 5.33334 12.1832C4.00696 12.1832 2.80838 11.9069 1.97229 11.4888C1.13621 11.0708 0.711178 10.5451 0.711178 10.0499L0.711072 9.36104ZM0.711072 11.4944C0.972883 11.7353 1.2958 11.9478 1.65551 12.1277C2.62079 12.6103 3.91043 12.8944 5.33336 12.8944C5.77641 12.8944 6.20628 12.8694 6.61669 12.8166C6.92919 13.2645 7.30904 13.6548 7.74447 13.9832C7.04309 14.1895 6.2174 14.3166 5.33346 14.3166C4.00709 14.3166 2.80921 14.0402 1.97242 13.6221C1.13562 13.2041 0.711303 12.6784 0.711303 12.1832L0.711072 11.4944Z" fill="#663398"/>
</svg>
