<svg width="32" height="32" viewBox="0 0 32 32" fill="none" xmlns="http://www.w3.org/2000/svg">
<g clip-path="url(#clip0)">
<path d="M3.90375 1.23406e-05H3.58625C1.6075 0.00376242 0.00385238 1.6075 1.23773e-05 3.58753V3.90503C-0.00248746 4.85879 0.373772 5.77377 1.04625 6.45003C1.71876 7.12628 2.63249 7.50628 3.58625 7.50878H3.90375C4.86126 7.51128 5.77876 7.13252 6.45626 6.45627C7.13252 5.78001 7.51127 4.86126 7.50878 3.905V3.5875C7.50628 2.63374 7.12503 1.72001 6.45003 1.04625C5.77377 0.37374 4.85748 -0.00248366 3.90375 1.23406e-05ZM6.485 3.90497C6.4875 4.58996 6.2175 5.24872 5.73249 5.73246C5.2475 6.21745 4.58999 6.48872 3.90375 6.48497H3.58625C2.90376 6.48372 2.25 6.21122 1.76875 5.72747C1.28875 5.24248 1.02001 4.58747 1.02376 3.90497V3.58747C1.02501 2.17246 2.17249 1.02622 3.58625 1.02373H3.90375C4.58625 1.01998 5.24251 1.28873 5.72625 1.76997C6.21124 2.24997 6.48375 2.90498 6.485 3.58747V3.90497Z" fill="#43464E"/>
<path d="M15.6986 0.000104904H15.3561C13.3811 0.0101049 11.7836 1.61137 11.7798 3.58763V3.90513C11.7748 5.88637 13.3748 7.49873 15.3561 7.50897H15.6986C17.6799 7.49897 19.2797 5.88647 19.2749 3.90513V3.58763C19.2712 1.61137 17.6737 0.0100249 15.6986 0.000104904V0.000104904ZM18.2624 3.90506H18.2611C18.2649 4.58756 17.9961 5.24257 17.5149 5.72756C17.0349 6.2113 16.3799 6.48382 15.6986 6.48506H15.3561C13.9424 6.48256 12.7949 5.33633 12.7936 3.92132V3.60382C12.7899 2.92132 13.0586 2.26632 13.5399 1.78132C14.0199 1.29758 14.6749 1.02507 15.3561 1.02382H15.6986C17.1124 1.02632 18.2599 2.17256 18.2611 3.58756L18.2624 3.90506Z" fill="#43464E"/>
<path d="M27.4708 1.23789e-05H27.1533C26.1996 -0.00248762 25.2833 0.373772 24.6071 1.04625C23.9321 1.72001 23.5508 2.63374 23.5484 3.5875V3.905C23.5459 4.86126 23.9246 5.78001 24.6009 6.45626C25.2784 7.13252 26.1959 7.51127 27.1534 7.50878H27.4709C28.4246 7.50628 29.3384 7.12628 30.0109 6.45003C30.6834 5.77377 31.0596 4.85876 31.0571 3.90503V3.58753C31.0534 1.60753 29.4496 0.00385238 27.4709 1.23789e-05H27.4708ZM30.0333 3.90497C30.0371 4.58747 29.7683 5.24248 29.2883 5.72747C28.8071 6.21121 28.1533 6.48372 27.4708 6.48497H27.1533C26.4671 6.48872 25.8096 6.21747 25.3246 5.73246C24.8396 5.24872 24.5696 4.58996 24.5721 3.90497V3.58747C24.5733 2.90498 24.8458 2.24997 25.3308 1.76997C25.8146 1.28872 26.4708 1.01995 27.1533 1.02373H27.4708C28.8846 1.02623 30.0321 2.17246 30.0333 3.58747V3.90497Z" fill="#43464E"/>
<path d="M3.90374 12.2524H3.58624C1.60624 12.2561 0.00128 13.8624 0 15.8424V16.16C0.00375008 18.14 1.60749 19.7436 3.58624 19.7475H3.90374C4.85875 19.75 5.775 19.3737 6.45123 18.7C7.12749 18.0262 7.50748 17.1112 7.50873 16.1575V15.84C7.50623 14.8862 7.12499 13.9725 6.44998 13.2987C5.77373 12.6262 4.85747 12.25 3.90374 12.2525V12.2524ZM6.48499 16.1573C6.48249 17.5711 5.33625 18.7186 3.92125 18.7198H3.60374C2.92125 18.7236 2.26499 18.4548 1.78125 17.9748C1.2975 17.4936 1.02499 16.8398 1.02374 16.1573V15.8398C1.02499 14.4248 2.17248 13.2786 3.58624 13.2761H3.90374C4.58749 13.2723 5.24374 13.5411 5.72749 14.0236C6.21248 14.5048 6.48499 15.1598 6.48499 15.8423V16.1573Z" fill="#43464E"/>
<path d="M15.7001 12.2524H15.3576C13.3813 12.2624 11.7838 13.8661 11.7812 15.8425V16.16C11.785 18.1362 13.3825 19.7376 15.3576 19.7475H15.7001C17.6763 19.7375 19.2738 18.1337 19.2764 16.1574V15.8399C19.2726 13.8636 17.6751 12.2623 15.7001 12.2524ZM18.2638 16.1573H18.2626C18.2626 17.5736 17.1151 18.7211 15.7001 18.7236H15.3576C13.9438 18.7211 12.7963 17.5748 12.7951 16.1598V15.8423C12.7951 14.4261 13.9426 13.2786 15.3576 13.2761H15.7001C17.1138 13.2786 18.2613 14.4248 18.2626 15.8398L18.2638 16.1573Z" fill="#43464E"/>
<path d="M27.4708 12.2526H27.1533C26.1983 12.2501 25.2821 12.6264 24.6058 13.3001C23.9296 13.9739 23.5496 14.8889 23.5483 15.8426V16.1601C23.5508 17.1139 23.9321 18.0276 24.6071 18.7014C25.2833 19.3739 26.1996 19.7501 27.1533 19.7476H27.4708C29.4508 19.7439 31.0558 18.1376 31.0571 16.1575V15.84C31.0533 13.86 29.4496 12.2564 27.4708 12.2525V12.2526ZM30.0333 16.1576C30.0321 17.5714 28.8846 18.7188 27.4708 18.7201H27.1533C26.4708 18.7238 25.8146 18.4551 25.3308 17.9751C24.8458 17.4939 24.5733 16.8401 24.5721 16.1576V15.8401C24.5746 14.4251 25.7208 13.2789 27.1358 13.2764H27.4533C28.1358 13.2726 28.7921 13.5414 29.2771 14.0238C29.7608 14.5051 30.0333 15.1601 30.0333 15.8426V16.1576Z" fill="#43464E"/>
<path d="M15.7001 24.5088H15.3576C13.3826 24.5175 11.7851 26.1201 11.7812 28.095V28.4125C11.785 30.3888 13.3825 31.9901 15.3576 32H15.7001C17.6751 31.99 19.2726 30.3888 19.2764 28.4125V28.095C19.2726 26.12 17.6751 24.5174 15.7001 24.5088ZM18.2638 28.4137L18.2626 28.4125C18.2613 29.8275 17.1138 30.9737 15.7001 30.9762H15.3576C13.9438 30.9737 12.7963 29.8275 12.7951 28.4125V28.095C12.7963 26.6812 13.9438 25.5337 15.3576 25.5325H15.7001C17.1138 25.5338 18.2613 26.6812 18.2626 28.095L18.2638 28.4137Z" fill="#43464E"/>
</g>
<defs>
<clipPath id="clip0">
<rect width="32" height="32" fill="white"/>
</clipPath>
</defs>
</svg>
