<svg width="20" height="20" viewBox="0 0 20 20" fill="none" xmlns="http://www.w3.org/2000/svg">
<path d="M9.99956 19C9.81618 19 9.6328 18.9421 9.48018 18.8262L9.03771 18.4902C4.97368 15.4106 2.52097 13.5512 1.0932 11.0705C-0.275664 8.69999 -0.111231 6.82761 0.266186 5.67502C0.726411 4.27427 1.76165 3.14698 3.18376 2.50051C3.91494 2.16915 4.70999 2 5.54409 2C7.30812 2 8.93845 2.73572 9.99974 3.94875C11.061 2.73572 12.6902 2 14.4554 2C15.2895 2 16.0834 2.168 16.8145 2.49936C18.2367 3.14585 19.2731 4.27202 19.7333 5.67387C20.1119 6.82551 20.2752 8.6977 18.9063 11.0693C17.4771 13.5499 15.021 15.4118 10.9521 18.4959L10.5202 18.8261C10.3664 18.942 10.183 19 9.99956 19Z" fill="#43464E"/>
</svg>
