<svg width="20" height="20" viewBox="0 0 20 20" fill="none" xmlns="http://www.w3.org/2000/svg">
<path d="M17.6594 7.34055C18.0943 7.67692 18.5276 8.01157 18.9616 8.34708C19.025 8.39562 19.0876 8.44501 19.151 8.49355C19.3233 8.62554 19.6127 8.52931 19.7078 8.34027C19.82 8.11888 19.7444 7.89918 19.5615 7.75696C19.1266 7.42059 18.6934 7.08595 18.2593 6.75043C18.1959 6.70189 18.1333 6.6525 18.0699 6.60396C17.8976 6.47197 17.6082 6.5682 17.5131 6.75724C17.4018 6.98034 17.4774 7.20003 17.6594 7.34055Z" fill="#43464E"/>
<path d="M1.1913 8.49446C1.84564 7.99035 2.49834 7.48538 3.15188 6.98297C3.34534 6.83395 3.54042 6.68492 3.73307 6.53335C3.90377 6.40136 4.00781 6.15866 3.87938 5.95003C3.76965 5.77291 3.50547 5.65624 3.32258 5.79676C2.63167 6.32897 1.93913 6.86289 1.2482 7.3951C1.09213 7.51603 0.935258 7.63525 0.780815 7.75702C0.610119 7.88901 0.506078 8.13171 0.634505 8.34034C0.744238 8.51831 1.00923 8.63498 1.1913 8.49446Z" fill="#43464E"/>
<path d="M17.4588 6.97196V7.17501V17.6255C17.4588 17.9674 17.4604 18.31 17.4588 18.6518C17.4588 18.6532 17.4588 18.6546 17.4588 18.6559V18.6712C17.4595 18.6126 17.4593 18.6245 17.4588 18.6518C17.4586 18.6631 17.4584 18.6769 17.4581 18.6895C17.4576 18.7165 17.4572 18.7378 17.4572 18.7155C17.4572 18.7709 17.4815 18.6389 17.4588 18.6883C17.4586 18.6887 17.4583 18.6891 17.4581 18.6895C17.4531 18.6996 17.4496 18.7127 17.4472 18.7252C17.4459 18.7317 17.445 18.738 17.4442 18.7436C17.436 18.7947 17.4848 18.6798 17.4523 18.7181C17.4506 18.7203 17.4489 18.7227 17.4472 18.7252C17.442 18.733 17.4368 18.7422 17.4325 18.7509C17.4301 18.7558 17.428 18.7606 17.4263 18.7649C17.4059 18.8118 17.4815 18.7138 17.4409 18.7436C17.4382 18.7458 17.4354 18.7483 17.4325 18.7509C17.4228 18.7597 17.4124 18.7703 17.4058 18.7797C17.4053 18.7805 17.4048 18.7812 17.4043 18.7819C17.3843 18.8088 17.4732 18.7315 17.4058 18.7797C17.4048 18.7804 17.4038 18.7812 17.4027 18.7819C17.3989 18.7835 17.3943 18.7864 17.3905 18.7888C17.3908 18.7886 17.3902 18.7889 17.3905 18.7888C17.3596 18.8058 17.3596 18.8058 17.3905 18.7905C17.3986 18.7862 17.4068 18.7836 17.4149 18.7802C17.4072 18.7829 17.3988 18.7861 17.3905 18.7888C17.3856 18.7903 17.3813 18.7914 17.3759 18.793C17.3654 18.7958 17.3581 18.798 17.3531 18.7997C17.3121 18.8143 17.4396 18.7975 17.3474 18.7998H3.87867C3.6023 18.7998 3.32757 18.8015 3.05119 18.7998H3.02336H3.00648C2.9317 18.7998 3.0268 18.7956 3.03249 18.8041C3.03204 18.8029 3.02847 18.8014 3.02336 18.7998C3.0128 18.7965 2.99566 18.7928 2.98585 18.7904C2.98311 18.7897 2.98094 18.7892 2.97965 18.7888C2.90244 18.77 3.00567 18.793 3.00242 18.799C3.00173 18.7997 2.99447 18.7956 2.98585 18.7904C2.97587 18.7843 2.96407 18.7767 2.95854 18.7733C2.95746 18.7726 2.95662 18.7721 2.95608 18.7717C2.88591 18.7366 2.99801 18.8261 2.95854 18.7733C2.95778 18.7722 2.95696 18.7712 2.95608 18.77C2.95679 18.7719 2.94993 18.7648 2.94196 18.7561C2.93165 18.7448 2.9195 18.7306 2.9195 18.7292C2.92084 18.7274 2.92287 18.7272 2.92491 18.7287C2.92508 18.729 2.92525 18.7293 2.92542 18.7297C2.93077 18.7342 2.93751 18.7465 2.94196 18.7561C2.94836 18.7698 2.94999 18.7777 2.93576 18.7479C2.93649 18.7498 2.93133 18.7406 2.92542 18.7297C2.92525 18.7293 2.92508 18.729 2.92491 18.7287C2.91777 18.7155 2.90975 18.7003 2.90975 18.6993C2.91075 18.6988 2.91173 18.6987 2.91267 18.699C2.91808 18.7009 2.92255 18.7161 2.92491 18.7287C2.92508 18.729 2.92525 18.7293 2.92542 18.7297C2.92849 18.7466 2.92728 18.758 2.9195 18.7232C2.9195 18.7252 2.91616 18.7127 2.91267 18.699C2.9123 18.6975 2.91192 18.696 2.91154 18.6946C2.90811 18.681 2.90487 18.6678 2.90487 18.6678C2.90662 18.6676 2.90794 18.6694 2.90894 18.6724C2.91061 18.6775 2.91135 18.6861 2.91154 18.6946C2.91203 18.7163 2.90894 18.7371 2.90894 18.6951V18.6724V7.16208V6.94968C2.84229 7.07315 2.77482 7.19492 2.70735 7.31754C2.77456 7.26578 2.84176 7.21395 2.90894 7.16208C3.33577 6.83251 3.76216 6.50109 4.18916 6.17221C4.51673 5.92102 4.84106 5.6698 5.16863 5.4186C5.78476 4.94344 6.40253 4.46912 7.01784 3.99225C7.73476 3.43874 8.45493 2.88525 9.17196 2.33173C9.50661 2.07454 9.8511 1.82583 10.1825 1.56105C10.2439 1.51199 10.3049 1.46237 10.3652 1.41205C10.3717 1.40779 10.3774 1.40354 10.3831 1.39928H9.9726C10.0427 1.45327 10.1126 1.50718 10.1825 1.56105C10.4432 1.76208 10.7027 1.96248 10.9643 2.16396C11.0216 2.20811 11.0789 2.25226 11.1362 2.29639C11.7843 2.79543 12.4318 3.29398 13.0793 3.79469C13.7295 4.2971 14.3798 4.79782 15.0301 5.30021C15.2837 5.49607 15.5381 5.69193 15.7925 5.88777C15.8042 5.89677 15.8158 5.90576 15.8274 5.91476C16.3706 6.33484 16.9138 6.75493 17.4588 7.17501C17.5097 7.21428 17.5607 7.25355 17.6117 7.29282C17.6279 7.3056 17.6458 7.31837 17.6621 7.3337C17.8344 7.46569 18.1238 7.36946 18.2189 7.18042C18.331 6.95903 18.2579 6.73933 18.0726 6.59711C17.5133 6.16707 16.9549 5.73535 16.3965 5.30276C16.1323 5.09838 15.8698 4.89571 15.6064 4.69389C14.9927 4.22128 14.379 3.74696 13.7629 3.27352C13.0411 2.7183 12.3201 2.16224 11.5992 1.60449C11.2009 1.29795 10.8091 0.972655 10.4002 0.680562C10.3937 0.676304 10.388 0.672047 10.3824 0.667789C10.2767 0.586893 10.0775 0.586893 9.97186 0.667789C9.49066 1.03821 9.01108 1.40863 8.52907 1.77907C7.63494 2.46883 6.74081 3.15687 5.84828 3.84663C5.34431 4.23665 4.83872 4.62579 4.33478 5.01326C3.70483 5.49865 3.07649 5.98402 2.44899 6.46941C2.39859 6.50773 2.34901 6.54605 2.29861 6.58692C2.17262 6.68485 2.1019 6.79555 2.0954 6.96756C2.09377 7.01866 2.0954 7.06975 2.0954 7.12084V17.3563C2.0954 17.7923 2.08565 18.2317 2.0954 18.6677C2.10759 19.211 2.51644 19.6385 3.03423 19.6487H17.1449C17.3822 19.6487 17.6099 19.647 17.8236 19.5039C18.1081 19.3166 18.2707 18.9973 18.2723 18.6464V6.96158C18.2723 6.73848 18.0853 6.52559 17.8659 6.53581C17.6432 6.5571 17.4588 6.73353 17.4588 6.97196Z" fill="#43464E"/>
<path d="M17.4588 7.17501C16.9138 6.75493 16.3706 6.33484 15.8274 5.91476L15.7925 5.88777C15.5381 5.69193 15.2837 5.49607 15.0301 5.30021C14.3798 4.79782 13.7295 4.2971 13.0793 3.79469C12.4318 3.29398 11.7843 2.79543 11.1362 2.29639L10.9643 2.16396C10.7027 1.96248 10.4432 1.76208 10.1825 1.56105C9.8511 1.82583 9.50661 2.07454 9.17196 2.33173C8.45493 2.88525 7.73476 3.43874 7.01784 3.99225C6.40253 4.46912 5.78476 4.94344 5.16863 5.4186C4.84106 5.6698 4.51673 5.92102 4.18916 6.17221C3.76216 6.50109 3.33577 6.83251 2.90894 7.16208V18.6724C2.91061 18.6775 2.91135 18.6861 2.91154 18.6946C2.91192 18.696 2.9123 18.6975 2.91267 18.699C2.91808 18.7009 2.92255 18.7161 2.92491 18.7287C2.92508 18.729 2.92525 18.7293 2.92542 18.7297C2.93077 18.7342 2.93751 18.7465 2.94196 18.7561C2.94993 18.7648 2.95679 18.7719 2.95608 18.77C2.95696 18.7712 2.95778 18.7722 2.95854 18.7733C2.96407 18.7767 2.97587 18.7843 2.98585 18.7904C2.99566 18.7928 3.0128 18.7965 3.02336 18.7998H3.05119C3.32757 18.8015 3.6023 18.7998 3.87867 18.7998H17.3474C17.3494 18.7998 17.3513 18.7997 17.3531 18.7997C17.3581 18.798 17.3654 18.7958 17.3759 18.793C17.3813 18.7914 17.3856 18.7903 17.3905 18.7888C17.3943 18.7864 17.3989 18.7835 17.4027 18.7819C17.4038 18.7812 17.4048 18.7804 17.4058 18.7797C17.4124 18.7703 17.4228 18.7597 17.4325 18.7509C17.4368 18.7422 17.442 18.733 17.4472 18.7252C17.4496 18.7127 17.4531 18.6996 17.4581 18.6895C17.4584 18.6769 17.4586 18.6631 17.4588 18.6518C17.4604 18.31 17.4588 17.9674 17.4588 17.6255V7.17501Z" fill="#43464E"/>
<path d="M11.9459 11.4096V12.0838V13.7044V15.6644V17.3612C11.9459 17.5166 11.9422 17.6729 11.941 17.8291C11.9402 17.9495 11.9408 18.0697 11.9459 18.1894V18.2029L12.3363 17.8291H11.941H10.7607H8.24893H8.06154H7.67115L8.06154 18.2029V17.8291V16.6219V13.5483V11.4867V11.4232V11.4142V11.405V11.3881L8.06155 11.3853C8.06168 11.3599 8.06368 11.364 8.0642 11.3757C8.06459 11.3843 8.06417 11.3972 8.06154 11.405C8.06015 11.4092 8.05813 11.412 8.05529 11.412C8.05529 11.412 8.05766 11.3997 8.06155 11.3853C8.0624 11.3822 8.0633 11.3789 8.0642 11.3757C8.06881 11.3591 8.07369 11.3428 8.07481 11.341C8.03421 11.4045 8.09199 11.2677 8.07481 11.341C8.07559 11.3391 8.08493 11.3238 8.09428 11.309C8.096 11.3063 8.09814 11.3032 8.0998 11.3006C8.10724 11.289 8.11385 11.2797 8.11385 11.2797C8.11599 11.281 8.11612 11.2834 8.11496 11.2862C8.11218 11.293 8.10198 11.3028 8.09428 11.309C8.08418 11.3172 8.07883 11.319 8.0998 11.3006C8.0998 11.3006 8.10722 11.2935 8.11496 11.2862C8.11869 11.2827 8.12278 11.2789 8.12688 11.2751C8.1303 11.272 8.13372 11.2688 8.13693 11.2659C8.14628 11.2575 8.15445 11.252 8.15445 11.252C8.15563 11.2537 8.15526 11.2557 8.15384 11.2578C8.14959 11.264 8.13594 11.2714 8.12688 11.2751C8.11618 11.2795 8.11187 11.279 8.13693 11.2659C8.13978 11.2645 8.14301 11.2628 8.14665 11.261C8.14665 11.261 8.15039 11.2595 8.15384 11.2578C8.16194 11.2537 8.17479 11.2465 8.18508 11.2408C8.19065 11.2378 8.19546 11.2352 8.19837 11.2337C8.20022 11.2328 8.2013 11.2326 8.2013 11.2326L8.19837 11.2337C8.18794 11.2378 8.17752 11.2425 8.1671 11.2466C8.17301 11.2445 8.17897 11.2426 8.18508 11.2408C8.19086 11.2392 8.19676 11.2377 8.20286 11.2363C8.20558 11.2357 8.21554 11.2335 8.22593 11.2312C8.23941 11.2282 8.25362 11.2251 8.25362 11.2251C8.19396 11.2324 8.18375 11.2326 8.22593 11.2312L8.22863 11.2311H8.25596H8.32233H9.47634H11.0754H11.6024H11.7352H11.7547H11.7688C11.7714 11.2311 11.774 11.2312 11.7762 11.2312C11.8222 11.2322 11.8004 11.2333 11.7795 11.232C11.7682 11.2313 11.757 11.2299 11.757 11.2274C11.757 11.2274 11.7653 11.2286 11.7762 11.2312L11.7795 11.232C11.8004 11.2371 11.8288 11.2446 11.8312 11.246C11.7648 11.2049 11.9015 11.2625 11.8312 11.246C11.8335 11.2469 11.8558 11.2597 11.8734 11.27C11.8756 11.2713 11.8774 11.2722 11.8795 11.2734C11.8886 11.2788 11.8952 11.2834 11.8952 11.2834C11.8941 11.2852 11.8872 11.2801 11.8795 11.2734C11.8614 11.2577 11.8389 11.2338 11.8734 11.27C11.8757 11.2722 11.8945 11.2894 11.9085 11.3036L11.9095 11.3054C11.9183 11.3144 11.9241 11.3223 11.9241 11.3223C11.9225 11.3233 11.9179 11.318 11.9129 11.3109C11.9117 11.3092 11.9107 11.3073 11.9095 11.3054L11.9085 11.3036C11.8841 11.2632 11.8959 11.2846 11.9085 11.3036L11.9095 11.3054C11.9107 11.3073 11.9117 11.3092 11.9129 11.3109C11.9168 11.3172 11.9227 11.3267 11.9285 11.3361C11.9307 11.3396 11.9328 11.3431 11.9348 11.3464C11.9408 11.3561 11.9455 11.3649 11.946 11.3671C11.944 11.3678 11.9421 11.3673 11.9403 11.3659C11.9345 11.3611 11.9303 11.3464 11.9285 11.3361C11.9264 11.3234 11.9278 11.3174 11.9343 11.3447L11.9348 11.3464C11.9358 11.3497 11.9379 11.3571 11.9403 11.3659C11.9421 11.3724 11.9441 11.3797 11.946 11.3867C11.9501 11.402 11.9538 11.4157 11.9538 11.4157C11.9525 11.4019 11.9506 11.3875 11.9477 11.373C11.9473 11.3709 11.9465 11.3693 11.946 11.3671V11.3867V11.4002L11.9459 11.4096C11.9498 11.6054 12.1217 11.7925 12.3364 11.7835C12.5267 11.7752 12.7025 11.6431 12.7246 11.4591C12.7265 11.443 12.7273 11.4265 12.7268 11.4097C12.7151 10.8955 12.2911 10.4866 11.7523 10.4769C11.6626 10.4754 11.5704 10.4769 11.4806 10.4769H10.0127H8.54091C8.44487 10.4769 8.34961 10.4754 8.25357 10.4769C7.732 10.4858 7.32052 10.8641 7.27914 11.3589C7.26509 11.5249 7.27758 11.6953 7.27758 11.8612V13.0386V16.1855C7.27758 16.847 7.26821 17.5086 7.27758 18.1678V18.1977C7.27758 18.3995 7.45716 18.5714 7.66797 18.5714H9.24362H11.7554H12.3331C12.544 18.5714 12.7235 18.3995 12.7235 18.1977V17.5234V15.9029V13.9429V12.2461C12.7235 11.9847 12.7306 11.7219 12.7246 11.4591C12.7243 11.4453 12.7239 11.4316 12.7235 11.4179V11.4044C12.7235 11.2086 12.544 11.0217 12.3331 11.0307C12.1377 11.044 11.9672 11.1824 11.9477 11.373C11.9468 11.382 11.9462 11.391 11.946 11.4002C11.9459 11.4033 11.9459 11.4064 11.9459 11.4096Z" fill="white"/>
<path d="M11.9459 12.0838V11.4096C11.9459 11.4064 11.9459 11.4033 11.946 11.4002V11.3867C11.9441 11.3797 11.9421 11.3724 11.9403 11.3659C11.9345 11.3611 11.9303 11.3464 11.9285 11.3361C11.9227 11.3267 11.9168 11.3172 11.9129 11.3109C11.9117 11.3092 11.9107 11.3073 11.9095 11.3054L11.9085 11.3036C11.8945 11.2894 11.8757 11.2722 11.8734 11.27C11.8558 11.2597 11.8335 11.2469 11.8312 11.246C11.8288 11.2446 11.8004 11.2371 11.7795 11.232C11.7758 11.2318 11.772 11.2315 11.7688 11.2311C11.762 11.2303 11.757 11.2274 11.757 11.2274C11.757 11.2274 11.7653 11.2286 11.7762 11.2312C11.8222 11.2322 11.8004 11.2333 11.7795 11.232C11.8004 11.2371 11.8288 11.2446 11.8312 11.246C11.8335 11.2469 11.8558 11.2597 11.8734 11.27C11.8389 11.2338 11.8614 11.2577 11.8795 11.2734C11.8886 11.2788 11.8952 11.2834 11.8952 11.2834C11.8941 11.2852 11.8872 11.2801 11.8795 11.2734C11.8774 11.2722 11.8756 11.2713 11.8734 11.27C11.8757 11.2722 11.8945 11.2894 11.9085 11.3036C11.8841 11.2632 11.8959 11.2846 11.9085 11.3036L11.9095 11.3054C11.9183 11.3144 11.9241 11.3223 11.9241 11.3223C11.9225 11.3233 11.9179 11.318 11.9129 11.3109C11.9168 11.3172 11.9227 11.3267 11.9285 11.3361C11.9264 11.3234 11.9278 11.3174 11.9343 11.3447L11.9348 11.3464C11.9408 11.3561 11.9455 11.3649 11.946 11.3671V11.3649C11.9466 11.3676 11.9472 11.3703 11.9477 11.373C11.9672 11.1824 12.1377 11.044 12.3331 11.0307C12.544 11.0217 12.7235 11.2086 12.7235 11.4044V11.4179C12.7239 11.4316 12.7243 11.4453 12.7246 11.4591C12.7265 11.443 12.7273 11.4265 12.7268 11.4097C12.7151 10.8955 12.2911 10.4866 11.7523 10.4769C11.6626 10.4754 11.5704 10.4769 11.4806 10.4769H10.0127H8.54091C8.44487 10.4769 8.34961 10.4754 8.25357 10.4769C7.732 10.4858 7.32052 10.8641 7.27914 11.3589C7.26509 11.5249 7.27758 11.6953 7.27758 11.8612V13.0386V16.1855C7.27758 16.847 7.26821 17.5086 7.27758 18.1678V18.1977C7.27758 18.3995 7.45716 18.5714 7.66797 18.5714H9.24362H11.7554H12.3331C12.544 18.5714 12.7235 18.3995 12.7235 18.1977V17.5234V15.9029V13.9429V12.2461C12.7235 11.9847 12.7306 11.7219 12.7246 11.4591C12.7025 11.6431 12.5267 11.7752 12.3364 11.7835C12.1217 11.7925 11.9498 11.6054 11.9459 11.4096L11.946 11.4002C11.9459 11.4033 11.9459 11.4064 11.9459 11.4096V12.0838V13.7044V15.6644V17.3612C11.9459 17.5166 11.9422 17.6729 11.941 17.8291H12.3363L11.9459 18.2029V18.1894C11.9408 18.0697 11.9402 17.9495 11.941 17.8291H10.7607H8.24893H8.06154V18.2029L7.67115 17.8291H8.06154V16.6219V13.5483V11.4867V11.4232V11.4142V11.405C8.06015 11.4092 8.05813 11.412 8.05529 11.412C8.05529 11.412 8.05766 11.3997 8.06155 11.3853C8.06168 11.3599 8.06368 11.364 8.0642 11.3757C8.06881 11.3591 8.07369 11.3428 8.07481 11.341C8.07559 11.3391 8.08493 11.3238 8.09428 11.309C8.08418 11.3172 8.07883 11.319 8.0998 11.3006C8.10724 11.289 8.11385 11.2797 8.11385 11.2797C8.11599 11.281 8.11612 11.2834 8.11496 11.2862C8.11869 11.2827 8.12278 11.2789 8.12688 11.2751C8.11618 11.2795 8.11187 11.279 8.13693 11.2659C8.14628 11.2575 8.15445 11.252 8.15445 11.252C8.15563 11.2537 8.15526 11.2557 8.15384 11.2578C8.16194 11.2537 8.17479 11.2465 8.18508 11.2408C8.17897 11.2426 8.17301 11.2445 8.1671 11.2466C8.17752 11.2425 8.18794 11.2378 8.19837 11.2337C8.20022 11.2328 8.2013 11.2326 8.2013 11.2326L8.19837 11.2337C8.19546 11.2352 8.19065 11.2378 8.18508 11.2408C8.19086 11.2392 8.19676 11.2377 8.20286 11.2363C8.20558 11.2357 8.21554 11.2335 8.22593 11.2312C8.18375 11.2326 8.19396 11.2324 8.25362 11.2251C8.25362 11.2251 8.23941 11.2282 8.22593 11.2312L8.22863 11.2311H8.25596H8.32233H9.47634H11.0754H11.6024H11.7352H11.7547H11.7688C11.7714 11.2311 11.774 11.2312 11.7762 11.2312C11.7653 11.2286 11.757 11.2274 11.757 11.2274C11.757 11.2274 11.762 11.2303 11.7688 11.2311H11.7547H11.7352H11.6024H11.0754H9.47634H8.32233H8.25596H8.22863L8.22593 11.2312C8.21554 11.2335 8.20558 11.2357 8.20286 11.2363C8.19676 11.2377 8.19086 11.2392 8.18508 11.2408C8.17479 11.2465 8.16194 11.2537 8.15384 11.2578C8.14959 11.264 8.13594 11.2714 8.12688 11.2751C8.12278 11.2789 8.11869 11.2827 8.11496 11.2862C8.11218 11.293 8.10198 11.3028 8.09428 11.309C8.08493 11.3238 8.07559 11.3391 8.07481 11.341C8.07369 11.3428 8.06881 11.3591 8.0642 11.3757C8.06459 11.3843 8.06417 11.3972 8.06154 11.405V11.4142V11.4232V11.4867V13.5483V16.6219V17.8291H8.24893H10.7607H11.941C11.9422 17.6729 11.9459 17.5166 11.9459 17.3612V15.6644V13.7044V12.0838Z" fill="white"/>
</svg>
