<svg width="16" height="16" viewBox="0 0 16 16" fill="none" xmlns="http://www.w3.org/2000/svg">
<path d="M7.99965 15.2C7.85294 15.2 7.70624 15.1536 7.58415 15.0609L7.23017 14.7922C3.97894 12.3285 2.01677 10.841 0.874557 8.85636C-0.220531 6.95997 -0.0889846 5.46206 0.212949 4.53999C0.581129 3.41939 1.40932 2.51756 2.54701 2.00039C3.13195 1.7353 3.76799 1.59998 4.43527 1.59998C5.84649 1.59998 7.15076 2.18855 7.99979 3.15898C8.8488 2.18855 10.1521 1.59998 11.5643 1.59998C12.2316 1.59998 12.8667 1.73437 13.4516 1.99946C14.5893 2.51666 15.4185 3.41759 15.7866 4.53907C16.0895 5.46038 16.2201 6.95814 15.125 8.85543C13.9816 10.8399 12.0168 12.3294 8.76167 14.7967L8.41619 15.0608C8.29315 15.1535 8.14636 15.2 7.99965 15.2ZM4.43513 2.93094C3.96567 2.93094 3.52271 3.02362 3.1176 3.20715C2.32823 3.56585 1.7556 4.18316 1.50573 4.94689C1.19054 5.90621 1.38174 7.03237 2.05658 8.20214C3.05797 9.94187 4.81666 11.2813 7.99858 13.694C11.1807 11.2823 12.9394 9.94116 13.9406 8.20308C14.6164 7.03244 14.8066 5.90629 14.4924 4.94689C14.2415 4.18408 13.6689 3.56585 12.8796 3.20715C12.4754 3.02363 12.0324 2.93094 11.563 2.93094C10.2881 2.93094 9.10312 3.62424 8.61464 4.65584C8.5039 4.89127 8.26255 5.04142 7.99846 5.04142C7.73343 5.04142 7.49398 4.89127 7.38228 4.65584C6.89484 3.62422 5.71005 2.93094 4.43513 2.93094Z" fill="#663398"/>
</svg>
