<svg width="16" height="17" viewBox="0 0 16 17" fill="none" xmlns="http://www.w3.org/2000/svg">
<g clip-path="url(#clip0)">
<path d="M15.803 4.75943L12.348 0.5H3.45499L0 4.75943V16.5H15.8043L15.803 4.75943ZM14.4364 4.47328H8.35605V1.38274H11.919L14.4364 4.47328ZM3.88289 1.38274H7.44583V4.47328H1.36544L3.88289 1.38274ZM0.883008 15.6164V5.32969H14.9189V15.6164H0.883008Z" fill="#663398"/>
<path d="M8.70271 10.3955L9.06543 10.0379H6.9741C6.69525 10.0379 6.44474 10.0658 6.24865 10.2033C5.85872 10.4781 5.77484 10.9184 5.88593 11.2201C5.9698 11.5497 6.22032 11.9072 6.72247 11.9352C7.14073 11.9631 7.559 11.9631 8.0056 11.9631H8.64716H8.95434C9.23318 11.9631 9.42815 12.1832 9.42815 12.4301C9.42706 12.6771 9.20486 12.8693 8.95325 12.8693H8.64608H8.03284H7.97729H7.39127C7.14074 12.8693 6.91746 12.8693 6.66583 12.8414C5.85763 12.7866 5.18773 12.2369 4.99276 11.4391C4.76947 10.6424 5.07663 9.84464 5.77375 9.37758C6.19202 9.10271 6.63861 9.04795 7.02855 9.04795H9.11988L8.67329 8.6904C8.58942 8.60772 8.53386 8.47029 8.53386 8.36077C8.53386 8.25126 8.58942 8.11382 8.67329 8.03115C8.75825 7.94955 8.89767 7.92163 9.00876 7.92163C9.11986 7.92163 9.25929 7.97639 9.34315 8.05907L10.5424 9.24123C10.6263 9.32391 10.6818 9.46134 10.6535 9.57086C10.6535 9.68038 10.598 9.81781 10.5141 9.90048L9.37038 11.0826C9.28651 11.1653 9.14709 11.2201 9.03599 11.2201C8.89657 11.2201 8.78547 11.1653 8.7016 11.0826C8.61773 11 8.56218 10.8625 8.56218 10.753C8.53495 10.6156 8.59052 10.4781 8.70271 10.3955Z" fill="#663398"/>
</g>
<defs>
<clipPath id="clip0">
<rect width="16" height="16" fill="white" transform="translate(0 0.5)"/>
</clipPath>
</defs>
</svg>
