<svg width="20" height="21" viewBox="0 0 20 21" fill="none" xmlns="http://www.w3.org/2000/svg">
<g clip-path="url(#clip0)">
<path d="M9.49994 18.5851C9.49994 18.3566 9.33432 18.1703 9.129 18.1703H0.750481C0.943212 14.0847 3.97663 10.8284 7.67634 10.8284C9.01287 10.8284 10.3107 11.254 11.4284 12.0608C11.6008 12.1842 11.8293 12.1301 11.9407 11.9373C12.0521 11.7445 12.0017 11.4879 11.8303 11.3645C10.5925 10.4721 9.1563 10 7.67636 10C3.44409 10 0 13.852 0 18.5852C0 18.8137 0.165614 19 0.370938 19H9.13004C9.33342 18.9989 9.50001 18.8137 9.50001 18.5852L9.49994 18.5851Z" fill="#43464E" stroke="#43464E" stroke-width="0.3"/>
<path d="M7.49799 10C9.98068 10 12 7.98088 12 5.49849C12 3.01804 9.98065 1 7.49799 1C5.01726 1 3 3.01812 3 5.49849C3 7.98091 5.01736 10 7.49799 10ZM7.49799 1.75084C9.56544 1.75084 11.2481 3.43228 11.2481 5.49849C11.2481 7.56669 9.56546 9.24916 7.49799 9.24916C5.43152 9.24916 3.75092 7.56674 3.75092 5.49849C3.75092 3.43226 5.43255 1.75084 7.49799 1.75084V1.75084Z" fill="#43464E" stroke="#43464E" stroke-width="0.3"/>
<path d="M19.9185 18.3136L17.9691 15.4773C18.3412 14.9875 18.5471 14.3963 18.5515 13.7712C18.5633 12.1908 17.2866 10.8959 15.7063 10.8833C14.1319 10.8759 12.8303 12.1504 12.8192 13.7307C12.8148 14.3719 13.0251 14.9632 13.3788 15.4442L11.3867 18.2526C11.3197 18.3475 11.3175 18.4732 11.3815 18.5703C11.4455 18.6674 11.5617 18.7152 11.6749 18.6909L13.2509 18.3541L13.5281 19.8352C13.5502 19.9521 13.6436 20.0433 13.7612 20.0617C13.776 20.0639 13.7907 20.0653 13.8046 20.0653C13.9069 20.0653 14.0025 20.0094 14.0517 19.9175L15.663 16.9355L17.2323 19.9396C17.2815 20.0337 17.3779 20.091 17.4816 20.091C17.4948 20.091 17.508 20.0903 17.5213 20.0881C17.6389 20.0712 17.7338 19.9822 17.7573 19.8653L18.0559 18.3894L19.6245 18.7482C19.737 18.774 19.8554 18.7284 19.9201 18.632C19.9848 18.535 19.9848 18.4085 19.9186 18.3136L19.9185 18.3136ZM15.687 11.4464H15.7017C16.9717 11.456 17.9975 12.4973 17.9881 13.7673C17.9844 14.3821 17.7403 14.9586 17.302 15.3903C16.8674 15.8183 16.2945 16.0529 15.6856 16.0529H15.668C14.3979 16.0441 13.3721 15.0042 13.381 13.7343C13.3905 12.4694 14.4238 11.4466 15.6872 11.4466L15.687 11.4464ZM13.9338 18.949L13.75 17.9657C13.736 17.8915 13.6926 17.8253 13.6294 17.7834C13.5661 17.7407 13.4882 17.726 13.4146 17.7422L12.2623 17.9885L13.7639 15.8714C14.1625 16.2325 14.6626 16.4825 15.2171 16.5737L13.9338 18.949ZM17.8989 17.7745C17.8247 17.7576 17.7474 17.7716 17.6835 17.8121C17.6195 17.8532 17.5754 17.9187 17.5599 17.993L17.3621 18.9732L16.1127 16.5803C16.6554 16.4994 17.1591 16.2655 17.5761 15.8986L19.0461 18.0362L17.8989 17.7745Z" fill="#43464E" stroke="#43464E" stroke-width="0.3"/>
</g>
<defs>
<clipPath id="clip0">
<rect width="20" height="21" fill="white"/>
</clipPath>
</defs>
</svg>
