<svg width="16" height="16" viewBox="0 0 16 16" fill="none" xmlns="http://www.w3.org/2000/svg">
<path d="M8.09783 11.2034C8.09783 11.0793 7.99723 10.9781 7.8725 10.9781H2.78302C2.9001 8.75847 4.74273 6.98943 6.9901 6.98943C7.80196 6.98943 8.5903 7.22064 9.26924 7.65893C9.37396 7.72599 9.5128 7.69658 9.58045 7.59186C9.64811 7.48714 9.61752 7.34771 9.51339 7.28064C8.76152 6.79587 7.88909 6.53937 6.99011 6.53937C4.41924 6.53937 2.32715 8.63206 2.32715 11.2035C2.32715 11.3277 2.42775 11.4289 2.55247 11.4289H7.87314C7.99668 11.4283 8.09787 11.3277 8.09787 11.2035L8.09783 11.2034Z" fill="#663398" stroke="#663398" stroke-width="0.3"/>
<path d="M6.91188 6.12146C8.39972 6.12146 9.60987 4.9113 9.60987 3.42347C9.60987 1.93681 8.39971 0.727295 6.91188 0.727295C5.42522 0.727295 4.21631 1.93685 4.21631 3.42347C4.21631 4.91131 5.42528 6.12146 6.91188 6.12146ZM6.91188 1.17731C8.15087 1.17731 9.15925 2.18509 9.15925 3.42347C9.15925 4.66305 8.15089 5.67144 6.91188 5.67144C5.67348 5.67144 4.66632 4.66308 4.66632 3.42347C4.66632 2.18507 5.6741 1.17731 6.91188 1.17731Z" fill="#663398" stroke="#663398" stroke-width="0.3"/>
<path d="M14.3341 13.8508L12.7746 11.5818C13.0723 11.19 13.237 10.717 13.2405 10.2169C13.2499 8.95263 12.2286 7.91667 10.9644 7.90658C9.70481 7.9007 8.66355 8.92024 8.65466 10.1845C8.65113 10.6975 8.8194 11.1705 9.10238 11.5553L7.50865 13.8021C7.45511 13.8779 7.45334 13.9786 7.50453 14.0562C7.55571 14.1339 7.64866 14.1721 7.73926 14.1527L9.00002 13.8832L9.22182 15.0681C9.23947 15.1616 9.31418 15.2346 9.40831 15.2493C9.42008 15.2511 9.43185 15.2522 9.44302 15.2522C9.5248 15.2522 9.60128 15.2075 9.6407 15.134L10.9297 12.7484L12.1851 15.1516C12.2246 15.2269 12.3016 15.2728 12.3846 15.2728C12.3952 15.2728 12.4057 15.2722 12.4163 15.2704C12.5105 15.2569 12.5864 15.1857 12.6052 15.0922L12.844 13.9115L14.0989 14.1985C14.1889 14.2191 14.2836 14.1827 14.3354 14.1056C14.3872 14.0279 14.3872 13.9267 14.3342 13.8508L14.3341 13.8508ZM10.9489 8.35712H10.9607C11.9767 8.36477 12.7973 9.19781 12.7898 10.2138C12.7869 10.7056 12.5915 11.1669 12.2409 11.5122C11.8932 11.8546 11.4349 12.0423 10.9478 12.0423H10.9337C9.91767 12.0352 9.09702 11.2034 9.1041 10.1874C9.11175 9.17549 9.93833 8.35721 10.949 8.35721L10.9489 8.35712ZM9.54637 14.3591L9.39929 13.5726C9.38811 13.5131 9.3534 13.4602 9.30281 13.4267C9.25221 13.3925 9.18985 13.3808 9.13102 13.3937L8.20914 13.5908L9.41048 11.8971C9.72934 12.1859 10.1294 12.386 10.573 12.4589L9.54637 14.3591ZM12.7185 13.4196C12.659 13.4061 12.5973 13.4172 12.5461 13.4496C12.4949 13.4826 12.4596 13.5349 12.4473 13.5943L12.289 14.3785L11.2895 12.4642C11.7236 12.3995 12.1266 12.2124 12.4602 11.9188L13.6362 13.629L12.7185 13.4196Z" fill="#663398" stroke="#663398" stroke-width="0.3"/>
</svg>
