<svg width="11" height="13" viewBox="0 0 11 13" fill="none" xmlns="http://www.w3.org/2000/svg">
<path d="M2.21122 13V10.822H0.699219V9.562H2.21122V8.41H0.699219V6.97H2.21122V0.219999H6.63922C7.45522 0.219999 8.15122 0.423999 8.72722 0.831999C9.30322 1.228 9.74122 1.738 10.0412 2.362C10.3532 2.986 10.5092 3.634 10.5092 4.306C10.5092 5.002 10.3652 5.668 10.0772 6.304C9.78922 6.928 9.36322 7.438 8.79922 7.834C8.24722 8.218 7.56322 8.41 6.74722 8.41H3.83122V9.562H6.65722V10.822H3.83122V13H2.21122ZM3.83122 6.97H6.65722C7.22122 6.97 7.66522 6.85 7.98922 6.61C8.31322 6.37 8.54122 6.046 8.67322 5.638C8.80522 5.23 8.87122 4.786 8.87122 4.306C8.87122 3.55 8.68522 2.92 8.31322 2.416C7.94122 1.912 7.34722 1.66 6.53122 1.66H3.83122V6.97Z" fill="#1D1F22"/>
</svg>
