<svg width="20" height="20" viewBox="0 0 20 20" fill="none" xmlns="http://www.w3.org/2000/svg">
<path d="M9.66685 9.20805e-06C8.44109 0.0062953 7.2682 0.498409 6.40612 1.36946C5.54404 2.24053 5.0627 3.41782 5.069 4.64354V7.24152H3.45978C3.20564 7.24152 3.00001 7.44716 3.00001 7.7013V16.8969C2.99911 17.072 3.09699 17.2318 3.25325 17.3108L8.0809 19.6323C9.08935 20.1226 10.2675 20.1226 11.2759 19.6323L16.0801 17.3108C16.2363 17.2318 16.3342 17.072 16.3333 16.8969V7.7013C16.3333 7.57917 16.2848 7.46242 16.1986 7.37621C16.1124 7.29 15.9957 7.24151 15.8735 7.24151H14.2643V4.64353C14.2706 3.41776 13.7893 2.2405 12.9272 1.36945C12.0651 0.498377 10.8923 0.00627597 9.66647 0L9.66685 9.20805e-06ZM5.98864 4.64354C5.98864 3.32977 6.68998 2.11568 7.82775 1.45843C8.96551 0.801173 10.3682 0.801081 11.506 1.45843C12.6437 2.11577 13.3451 3.32986 13.3451 4.64354V7.24152H5.98864V4.64354ZM15.4141 16.5978L10.862 18.8051C10.1077 19.1715 9.22588 19.1715 8.47166 18.8051L3.91965 16.6211V8.16098H15.4141V16.5978Z" fill="#43464E"/>
<path d="M9.68209 15.6517C9.83163 15.6517 9.97458 15.5924 10.0801 15.4868C10.1857 15.3813 10.2451 15.2383 10.2451 15.0888V12.8369C10.2451 12.5257 9.99327 12.274 9.6821 12.274C9.37093 12.274 9.11914 12.5258 9.11914 12.8369V15.0888C9.11914 15.2383 9.17852 15.3813 9.28407 15.4868C9.38963 15.5924 9.53257 15.6517 9.68211 15.6517H9.68209Z" fill="#43464E"/>
</svg>
