<svg width="20" height="29" viewBox="0 0 20 29" fill="none" xmlns="http://www.w3.org/2000/svg">
<path d="M10.0165 1.33517e-05C8.23918 0.00912818 6.5385 0.722693 5.28848 1.98572C4.03847 3.24877 3.34052 4.95584 3.34966 6.73313V10.5002H1.01629C0.647789 10.5002 0.349618 10.7984 0.349618 11.1669V24.5005C0.348316 24.7544 0.490247 24.9861 0.716823 25.1007L7.71691 28.4668C9.17916 29.1777 10.8875 29.1777 12.3496 28.4668L19.3157 25.1007C19.5423 24.9861 19.6842 24.7544 19.6829 24.5005V11.1669C19.6829 10.9898 19.6126 10.8205 19.4876 10.6955C19.3626 10.5705 19.1933 10.5002 19.0162 10.5002H16.6829V6.73312C16.692 4.95576 15.9941 3.24872 14.7441 1.9857C13.494 0.722646 11.7935 0.00910016 10.016 0L10.0165 1.33517e-05ZM4.68314 6.73313C4.68314 4.82817 5.70009 3.06773 7.34984 2.11472C8.99959 1.1617 11.0336 1.16157 12.6832 2.11472C14.3329 3.06787 15.3499 4.8283 15.3499 6.73313V10.5002H4.68314V6.73313ZM18.35 24.0668L11.7496 27.2674C10.6558 27.7986 9.37713 27.7986 8.28352 27.2674L1.6831 24.1006V11.8334H18.35V24.0668Z" fill="#663398"/>
<path d="M10.038 22.695C10.2548 22.695 10.4621 22.6089 10.6151 22.4559C10.7682 22.3028 10.8543 22.0955 10.8543 21.8787V18.6135C10.8543 18.1623 10.4892 17.7972 10.038 17.7972C9.58678 17.7972 9.22168 18.1623 9.22168 18.6135V21.8787C9.22168 22.0955 9.30777 22.3028 9.46083 22.4559C9.61389 22.6089 9.82115 22.695 10.038 22.695H10.038Z" fill="#663398"/>
</svg>
