<svg width="20" height="20" viewBox="0 0 20 20" fill="none" xmlns="http://www.w3.org/2000/svg">
<path d="M6.64645 18.3536C6.84171 18.5488 7.15829 18.5488 7.35355 18.3536L10.5355 15.1716C10.7308 14.9763 10.7308 14.6597 10.5355 14.4645C10.3403 14.2692 10.0237 14.2692 9.82843 14.4645L7 17.2929L4.17157 14.4645C3.97631 14.2692 3.65973 14.2692 3.46447 14.4645C3.2692 14.6597 3.2692 14.9763 3.46447 15.1716L6.64645 18.3536ZM6.5 5L6.5 18L7.5 18L7.5 5L6.5 5Z" fill="#43464E"/>
<path d="M13.3536 1.64645C13.1583 1.45118 12.8417 1.45118 12.6464 1.64645L9.46447 4.82843C9.2692 5.02369 9.2692 5.34027 9.46447 5.53553C9.65973 5.7308 9.97631 5.7308 10.1716 5.53553L13 2.70711L15.8284 5.53553C16.0237 5.7308 16.3403 5.7308 16.5355 5.53553C16.7308 5.34027 16.7308 5.02369 16.5355 4.82843L13.3536 1.64645ZM13.5 15L13.5 2L12.5 2L12.5 15L13.5 15Z" fill="#43464E"/>
</svg>
