<svg width="20" height="20" viewBox="0 0 20 20" fill="none" xmlns="http://www.w3.org/2000/svg">
<path d="M5.45455 2C2.02227 2 0.0418182 4.78278 0 7.13767V7.14466C0 9.77467 1.38405 12.0193 3.27409 13.9389C5.16414 15.8585 7.57273 17.4838 9.74432 18.9227C9.89879 19.0258 10.1012 19.0258 10.2557 18.9227C12.4272 17.4836 14.8357 15.8585 16.7259 13.9389C18.6161 12.0193 20 9.77467 20 7.14466V7.13767C19.9583 4.78301 17.9776 2 14.5455 2C12.6172 2 10.9314 2.90782 10 4.15291C9.0687 2.90782 7.38273 2 5.45455 2ZM5.45455 2.89471C7.33132 2.89471 9.01273 3.96417 9.59523 5.11052C9.67335 5.25993 9.82959 5.35428 10 5.35428C10.1705 5.35428 10.3267 5.25992 10.4049 5.11052C10.9873 3.96417 12.6687 2.89471 14.5455 2.89471C17.4735 2.89471 19.0546 5.27309 19.091 7.1446V7.15159C19.0883 9.46957 17.8694 11.4914 16.0726 13.3166C14.3432 15.0737 12.0962 16.6141 10.0001 18.0069C7.90402 16.6142 5.65714 15.0738 3.92759 13.3166C2.13073 11.4914 0.911682 9.46957 0.909182 7.15159V7.1446C0.945582 5.27304 2.52673 2.89471 5.45464 2.89471H5.45455Z" fill="#43464E"/>
</svg>
