<svg width="16" height="16" viewBox="0 0 16 16" fill="none" xmlns="http://www.w3.org/2000/svg">
<path d="M8 0C3.58849 0 0 3.58849 0 8C0 12.4115 3.58849 16 8 16C12.4115 16 16 12.4115 16 8C16 3.58849 12.4115 0 8 0ZM8 1.17073C11.7789 1.17073 14.8293 4.22107 14.8293 8C14.8293 11.7789 11.7789 14.8293 8 14.8293C4.22107 14.8293 1.17073 11.7789 1.17073 8C1.17073 4.22107 4.22107 1.17073 8 1.17073ZM8 2.14634C7.67684 2.14634 7.41463 2.40855 7.41463 2.73171V8C7.41463 8.21647 7.53277 8.40472 7.70732 8.50611L11.9329 10.9451C12.2126 11.1067 12.5701 11.0114 12.7317 10.7317C12.8933 10.452 12.798 10.0945 12.5182 9.93292L8.58537 7.66462V2.73175C8.58537 2.40859 8.32316 2.14638 8 2.14638V2.14634Z" fill="#663398"/>
</svg>
