<svg width="16" height="16" viewBox="0 0 16 16" fill="none" xmlns="http://www.w3.org/2000/svg">
<path fill-rule="evenodd" clip-rule="evenodd" d="M8.30323 1.42878L9.16573 2.41378L10.4557 1.86627C10.6645 1.77815 10.9057 1.8919 10.972 2.10752L11.3657 3.3769L12.7651 3.4019C12.9914 3.40565 13.1682 3.60626 13.1401 3.83127L12.9845 5.15252L14.2532 5.74439C14.4451 5.83439 14.5282 6.06314 14.4382 6.25502C14.2651 6.61314 13.952 7.07502 13.7401 7.43065L14.6589 8.48878C14.807 8.66002 14.7739 8.92503 14.5895 9.05503L13.5038 9.82191L13.9126 11.1613C13.9789 11.38 13.8414 11.6057 13.6189 11.6494L12.317 11.9088L12.1464 13.2982C12.117 13.5363 11.8789 13.69 11.6514 13.62L10.382 13.3319L9.66073 14.5313C9.54385 14.7263 9.2826 14.7782 9.10073 14.6419L8.03447 13.8463L6.88759 14.6488C6.69946 14.78 6.44385 14.7188 6.33196 14.5207L5.68321 13.3619L4.30695 13.6294C4.07321 13.6738 3.8582 13.4988 3.85007 13.2631L3.73132 11.9631L2.36758 11.6481C2.14446 11.5969 2.01695 11.365 2.08883 11.1494L2.51633 9.89064L1.3982 9.04752C1.20571 8.90189 1.19321 8.61876 1.36945 8.45689L2.2507 7.50377L1.57195 6.27878C1.4607 6.07878 1.5482 5.82816 1.75758 5.73816L2.97696 5.21441L2.85571 3.81878C2.83508 3.57816 3.0407 3.37878 3.2782 3.4019L4.57321 3.4194L5.02947 2.09503C5.10697 1.87004 5.36572 1.77004 5.57446 1.8794L6.76196 2.42753L7.71697 1.40441C7.87884 1.23066 8.1551 1.24441 8.30134 1.42878H8.30323ZM4.84755 8.14622C4.33693 7.6356 5.11318 6.85872 5.62443 7.36934L7.34443 9.08934L10.3563 5.75062C10.8381 5.21499 11.6532 5.94875 11.1713 6.48437L7.79 10.2319C7.58501 10.4838 7.20626 10.5044 6.97563 10.2738L4.84683 8.1456L4.84755 8.14622Z" fill="#663398"/>
</svg>
